# xmcd
#
# Track frame offsets:
#	150
#	13232
#	24066
#	33897
#	48460
#	61151
#	75194
#	87001
#	96728
#	108951
#	121200
#	132384
#	144035
#	155816
#	165517
#	177417
#
# Disc length: 2466 seconds
#
# Revision: 0
# Processed by: cddbd v1.5.2PL0 Copyright (c) Steve Scherf et al.
# Submitted via: EasyCDDAExtractor 11.1.0.1
#
DISCID=bf09a010
DTITLE=Various Artist - Country Legends
DYEAR=2008
DGENRE=country
TTITLE0=Kenny Rogers - Ruby don't take your love to town
TTITLE1=Lynn Anderson - Heaven's just a sin away
TTITLE2=Dave Dudley - Six days on the road
TTITLE3=Anne Murray - Both sides now
TTITLE4=Porter Wagoner - Satisfied mind
TTITLE5=Frankie Laine - Don't fence me in
TTITLE6=Dolly Parton - Making believe
TTITLE7=Jimmy Dean - Freight train blues
TTITLE8=Dotti West - Crazy
TTITLE9=Lynn Anderson - Stand by your man
TTITLE10=Johnny Horton - All for the love of a girl
TTITLE11=Patsy Cline - Today tomorrow and forever
TTITLE12=Willie Nelson - Night life
TTITLE13=Mickey Gilley - Fraulein
TTITLE14=Diana Trask - It's a man's world
TTITLE15=Roger Miller - do Wacka do
EXTD=
EXTT0=
EXTT1=
EXTT2=
EXTT3=
EXTT4=
EXTT5=
EXTT6=
EXTT7=
EXTT8=
EXTT9=
EXTT10=
EXTT11=
EXTT12=
EXTT13=
EXTT14=
EXTT15=
PLAYORDER=
